<svg width="40" height="40" viewBox="0 0 40 40" fill="none" xmlns="http://www.w3.org/2000/svg">
<g clip-path="url(#clip0_550_83)">
<g clip-path="url(#clip1_550_83)">
<path d="M13.3333 2.14285C9.65277 2.14285 6.66667 5.1423 6.66667 8.83928C6.66667 12.5363 9.65277 15.5357 13.3333 15.5357C17.0139 15.5357 20 12.5363 20 8.83928C20 5.1423 17.0139 2.14285 13.3333 2.14285ZM13.3333 6.60714C14.5573 6.60714 15.5556 7.60985 15.5556 8.83928C15.5556 10.0687 14.5573 11.0714 13.3333 11.0714C12.1094 11.0714 11.1111 10.0687 11.1111 8.83928C11.1111 7.60985 12.1094 6.60714 13.3333 6.60714ZM11.1111 17.4191V28.9286H35.5556V37.8571H40V26.6964C39.9131 24.3946 37.8559 23.9324 35.2083 23.4877L24.4444 22.2321H15.5556V17.4191C14.8437 17.6021 14.1059 17.7679 13.3333 17.7679C12.5608 17.7679 11.8229 17.6021 11.1111 17.4191ZM4.44444 20C1.98784 20 0 21.9967 0 24.4643C0 26.9319 1.98784 28.9286 4.44444 28.9286C6.90104 28.9286 8.88889 26.9319 8.88889 24.4643C8.88889 21.9967 6.90104 20 4.44444 20ZM0 31.1607V35.625H33.3333V31.1607H0Z" fill="black"/>
</g>
</g>
<defs>
<clipPath id="clip0_550_83">
<rect width="40" height="40" fill="white"/>
</clipPath>
<clipPath id="clip1_550_83">
<rect width="40" height="35.7143" fill="white" transform="translate(0 2.14285)"/>
</clipPath>
</defs>
</svg>
