<svg width="40" height="40" viewBox="0 0 40 40" fill="none" xmlns="http://www.w3.org/2000/svg">
<g clip-path="url(#clip0_550_97)">
<g clip-path="url(#clip1_550_97)">
<path d="M32.5907 1.48148C31.4382 1.48148 30.3329 1.94055 29.5181 2.7577C28.7031 3.57485 28.2453 4.68315 28.2453 5.83878C28.2453 6.99441 28.7031 8.10269 29.5181 8.91985C30.3329 9.737 31.4382 10.1961 32.5907 10.1961C33.7433 10.1961 34.8484 9.737 35.6634 8.91985C36.4784 8.10269 36.9361 6.99441 36.9361 5.83878C36.9361 4.68315 36.4784 3.57485 35.6634 2.7577C34.8484 1.94055 33.7433 1.48148 32.5907 1.48148ZM15.2302 3.39205L5.54636 8.24721L7.48993 12.1449L15.1879 8.28551L19.669 10.6301L14.721 15.3619C13.1095 16.9027 12.6827 19.141 13.3291 21.0595L0 35.4378L3.07236 38.5185L16.847 24.7062L21.1501 27.387L13.6813 34.791L16.7367 37.8887L27.0656 27.6508L21.812 21.0084L26.0047 17.0809L29.4207 23.9318L40 19.1702L38.2176 15.1917L31.4407 18.2468L27.1462 9.63439L15.2302 3.39205Z" fill="black"/>
</g>
</g>
<defs>
<clipPath id="clip0_550_97">
<rect width="40" height="40" fill="white"/>
</clipPath>
<clipPath id="clip1_550_97">
<rect width="40" height="37.037" fill="white" transform="translate(0 1.48148)"/>
</clipPath>
</defs>
</svg>
