<svg width="23" height="22" viewBox="0 0 23 22" fill="none" xmlns="http://www.w3.org/2000/svg">
<path d="M18.525 0.814697C17.8911 0.814697 17.2832 1.06719 16.835 1.51662C16.3868 1.96606 16.135 2.57562 16.135 3.21121C16.135 3.84681 16.3868 4.45637 16.835 4.9058C17.2832 5.35524 17.8911 5.60772 18.525 5.60772C19.1589 5.60772 19.7667 5.35524 20.215 4.9058C20.6632 4.45637 20.915 3.84681 20.915 3.21121C20.915 2.57562 20.6632 1.96606 20.215 1.51662C19.7667 1.06719 19.1589 0.814697 18.525 0.814697ZM8.97672 1.86551L3.65059 4.53585L4.71956 6.6796L8.95342 4.55691L11.4181 5.84644L8.69664 8.44891C7.81033 9.29635 7.57559 10.5275 7.9311 11.5826L0.600098 19.4907L2.28989 21.1851L9.86593 13.5883L12.2326 15.0627L8.12481 19.1349L9.80531 20.8387L15.4862 15.2078L12.5967 11.5545L14.9027 9.39437L16.7815 13.1624L22.6001 10.5435L21.6198 8.35529L17.8925 10.0356L15.5305 5.2988L8.97672 1.86551Z" fill="#00E5FF"/>
</svg>
