<svg width="27" height="25" viewBox="0 0 27 25" fill="none" xmlns="http://www.w3.org/2000/svg">
<path d="M21.9987 0C21.2208 0 20.4747 0.309873 19.9247 0.86145C19.3746 1.41303 19.0656 2.16113 19.0656 2.94118C19.0656 3.72123 19.3746 4.46932 19.9247 5.0209C20.4747 5.57248 21.2208 5.88235 21.9987 5.88235C22.7767 5.88235 23.5227 5.57248 24.0728 5.0209C24.6229 4.46932 24.9319 3.72123 24.9319 2.94118C24.9319 2.16113 24.6229 1.41303 24.0728 0.86145C23.5227 0.309873 22.7767 0 21.9987 0ZM10.2804 1.28964L3.74379 4.56687L5.0557 7.19784L10.2518 4.59272L13.2766 6.17532L9.93666 9.36926C8.84892 10.4093 8.56083 11.9202 8.99714 13.2152L0 22.9205L2.07384 25L11.3717 15.6767L14.2763 17.4862L9.23488 22.4839L11.2973 24.5749L18.2693 17.6643L14.7231 13.1807L17.5532 10.5296L19.859 15.154L27 11.9399L25.7969 9.25437L21.2225 11.3166L18.3237 5.50322L10.2804 1.28964Z" fill="white"/>
</svg>
