<svg width="20" height="21" viewBox="0 0 20 21" fill="none" xmlns="http://www.w3.org/2000/svg">
<g clip-path="url(#clip0_550_192)">
<g clip-path="url(#clip1_550_192)">
<path d="M17.7722 4.9111C17.7722 4.86665 17.7611 4.81665 17.7444 4.77221C17.7444 4.7611 17.7444 4.74443 17.7333 4.73332C17.7333 4.72776 17.7222 4.72221 17.7222 4.71665C17.6944 4.65554 17.6611 4.59999 17.6111 4.55554L14.2777 1.22221C14.2277 1.17221 14.1722 1.13887 14.1166 1.1111C14.1111 1.1111 14.1055 1.09999 14.0999 1.09999C14.0888 1.09999 14.0722 1.09999 14.0611 1.09443C14.0166 1.07776 13.9722 1.07221 13.9222 1.06665C13.9111 1.06665 13.8999 1.0611 13.8888 1.0611H7.22217C6.3055 1.0611 5.5555 1.8111 5.5555 2.72776V4.39443H3.88883C2.97217 4.39443 2.22217 5.14443 2.22217 6.0611V18.2833C2.22217 19.2 2.97217 19.95 3.88883 19.95H12.7777C13.6944 19.95 14.4444 19.2 14.4444 18.2833V16.6167H16.1111C17.0277 16.6167 17.7777 15.8667 17.7777 14.95V4.94443C17.7777 4.94443 17.7722 4.92221 17.7722 4.9111ZM15.8833 4.38887H14.4444V2.94999L15.8833 4.38887ZM13.3333 18.2778C13.3333 18.5833 13.0833 18.8333 12.7777 18.8333H3.88883C3.58328 18.8333 3.33328 18.5833 3.33328 18.2778V6.05554C3.33328 5.74999 3.58328 5.49999 3.88883 5.49999H5.5555V14.9444C5.5555 15.8611 6.3055 16.6111 7.22217 16.6111H13.3333V18.2778ZM16.1111 15.5H7.22217C6.91661 15.5 6.66661 15.25 6.66661 14.9444V2.72221C6.66661 2.41665 6.91661 2.16665 7.22217 2.16665H13.3333V4.38887C13.3333 4.99999 13.8333 5.49999 14.4444 5.49999H16.6666V14.9444C16.6666 15.25 16.4166 15.5 16.1111 15.5ZM15.5555 7.72221C15.5555 8.02776 15.3055 8.27776 14.9999 8.27776H8.33328C8.02772 8.27776 7.77772 8.02776 7.77772 7.72221C7.77772 7.41665 8.02772 7.16665 8.33328 7.16665H14.9999C15.3055 7.16665 15.5555 7.41665 15.5555 7.72221ZM15.5555 10.5C15.5555 10.8055 15.3055 11.0555 14.9999 11.0555H8.33328C8.02772 11.0555 7.77772 10.8055 7.77772 10.5C7.77772 10.1944 8.02772 9.94443 8.33328 9.94443H14.9999C15.3055 9.94443 15.5555 10.1944 15.5555 10.5ZM15.5555 13.2778C15.5555 13.5833 15.3055 13.8333 14.9999 13.8333H8.33328C8.02772 13.8333 7.77772 13.5833 7.77772 13.2778C7.77772 12.9722 8.02772 12.7222 8.33328 12.7222H14.9999C15.3055 12.7222 15.5555 12.9722 15.5555 13.2778Z" fill="black"/>
</g>
</g>
<defs>
<clipPath id="clip0_550_192">
<rect width="20" height="20" fill="white" transform="translate(0 0.5)"/>
</clipPath>
<clipPath id="clip1_550_192">
<rect width="20" height="20" fill="white" transform="translate(0 0.5)"/>
</clipPath>
</defs>
</svg>
