<svg width="134" height="26" viewBox="0 0 134 26" fill="none" xmlns="http://www.w3.org/2000/svg">
<path d="M93.8647 0V0.0370162C101.591 0.0370162 108.088 1.81381 108.088 10.1425C108.088 18.4343 101.591 20.2481 93.8647 20.2481H91.3686V25.9116H82.1768V0H93.8647ZM95.7269 12.9928V12.9558C98.3022 12.9558 99.055 11.3271 99.055 10.1425C99.055 8.92099 98.3022 7.29226 95.7269 7.29226H91.3686V12.9928H95.7269Z" fill="black"/>
<path d="M11.7813 0C17.3233 0 25.9116 1.9989 25.9116 12.9928C25.9116 23.9867 17.3233 25.9116 11.7813 25.9116H0V0H11.7813ZM10.2032 18.6564C13.4329 18.6564 17.1031 17.879 17.1031 12.9928C17.1031 8.06961 13.4329 7.29226 10.2032 7.29226H8.51486V18.6564H10.2032Z" fill="black"/>
<path d="M37.0414 18.6297H53.3037V25.9116H27.3921V0H52.3471V7.28186H37.0414V9.49969H51.1409V15.7835H37.0414V18.6297Z" fill="black"/>
<path d="M64.4339 18.6297H80.6963V25.9116H54.7847V0H79.7397V7.28186H64.4339V9.49969H78.5335V15.7835H64.4339V18.6297Z" fill="black"/>
<path d="M108.088 19.2662L118.025 0L124.818 13.0116L108.088 19.2662Z" fill="#00E5FF"/>
<path d="M111.17 20.1597L127.962 14.0168L134 25.9116H108.34L111.17 20.1597Z" fill="#00E5FF"/>
</svg>
