<svg width="20" height="21" viewBox="0 0 20 21" fill="none" xmlns="http://www.w3.org/2000/svg">
<g clip-path="url(#clip0_550_196)">
<g clip-path="url(#clip1_550_196)">
<path d="M8.913 2.23913C8.80796 2.23778 8.70415 2.26183 8.6104 2.30922C8.51665 2.35661 8.43573 2.42595 8.37453 2.51133C8.31333 2.59671 8.27366 2.69561 8.25889 2.79961C8.24412 2.90362 8.25469 3.00965 8.2897 3.10869H6.36545C5.56664 3.10869 4.81862 3.50845 4.37581 4.17357L3.3466 5.71739H3.26083C3.17441 5.71617 3.08861 5.73213 3.00841 5.76436C2.92821 5.79659 2.85522 5.84443 2.79367 5.90511C2.73213 5.96579 2.68326 6.0381 2.6499 6.11783C2.61654 6.19757 2.59937 6.28313 2.59937 6.36956C2.59937 6.45599 2.61654 6.54156 2.6499 6.62129C2.68326 6.70103 2.73213 6.77333 2.79367 6.83402C2.85522 6.8947 2.92821 6.94254 3.00841 6.97477C3.08861 7.00699 3.17441 7.02296 3.26083 7.02174H3.59286C3.6488 7.03019 3.70561 7.03134 3.76185 7.02513L4.83691 17.0591C4.96663 18.2688 5.99815 19.1957 7.21463 19.1957H13.654C14.8705 19.1957 15.902 18.2688 16.0317 17.0591L17.1076 7.02513C17.1628 7.03104 17.2184 7.0299 17.2732 7.02174H17.6087C17.6951 7.02296 17.7809 7.00699 17.8611 6.97477C17.9413 6.94254 18.0143 6.8947 18.0758 6.83402C18.1374 6.77333 18.1862 6.70103 18.2196 6.62129C18.2529 6.54156 18.2701 6.45599 18.2701 6.36956C18.2701 6.28313 18.2529 6.19757 18.2196 6.11783C18.1862 6.0381 18.1374 5.96579 18.0758 5.90511C18.0143 5.84443 17.9413 5.79659 17.8611 5.76436C17.7809 5.73213 17.6951 5.71617 17.6087 5.71739H17.5229L16.4937 4.17357C16.0505 3.50882 15.3026 3.10869 14.504 3.10869H12.5798C12.6148 3.00965 12.6254 2.90362 12.6106 2.79961C12.5958 2.69561 12.5562 2.59671 12.495 2.51133C12.4338 2.42595 12.3528 2.35661 12.2591 2.30922C12.1653 2.26183 12.0615 2.23778 11.9565 2.23913H8.913ZM6.36545 4.41304H14.504C14.8681 4.41304 15.2064 4.59401 15.4084 4.89708L15.9553 5.71739H4.91419L5.46107 4.89708L5.46191 4.89623C5.66343 4.59354 6.00077 4.41304 6.36545 4.41304ZM5.07384 7.02174H15.7956L14.735 16.9198C14.6752 17.4779 14.2149 17.8913 13.654 17.8913H7.21463C6.65373 17.8913 6.19432 17.4779 6.13447 16.9198L5.07384 7.02174Z" fill="black"/>
</g>
</g>
<defs>
<clipPath id="clip0_550_196">
<rect width="20" height="20" fill="white" transform="translate(0 0.5)"/>
</clipPath>
<clipPath id="clip1_550_196">
<rect width="20" height="20" fill="white" transform="translate(0 0.5)"/>
</clipPath>
</defs>
</svg>
