<svg width="20" height="25" viewBox="0 0 20 25" fill="none" xmlns="http://www.w3.org/2000/svg">
<path fill-rule="evenodd" clip-rule="evenodd" d="M8.33329 5.83334H6.66663V7.50001H4.16663C2.78592 7.50001 1.66663 8.6193 1.66663 10V15C1.66663 16.3808 2.78592 17.5 4.16663 17.5H6.66663V19.1667H8.33329V5.83334ZM6.66663 9.16668V15.8333H4.16663C3.70639 15.8333 3.33329 15.4603 3.33329 15V10C3.33329 9.53978 3.70639 9.16668 4.16663 9.16668H6.66663Z" fill="black"/>
<path d="M15.8333 15.8333H10V17.5H15.8333C17.2141 17.5 18.3333 16.3807 18.3333 15V10C18.3333 8.61929 17.2141 7.5 15.8333 7.5H10V9.16667H15.8333C16.2936 9.16667 16.6667 9.53976 16.6667 10V15C16.6667 15.4602 16.2936 15.8333 15.8333 15.8333Z" fill="black"/>
</svg>
