<svg width="30" height="30" viewBox="0 0 30 30" fill="none" xmlns="http://www.w3.org/2000/svg">
<path d="M15 30C23.2843 30 30 23.2843 30 15C30 6.71573 23.2843 0 15 0C6.71573 0 0 6.71573 0 15C0 23.2843 6.71573 30 15 30Z" fill="white"/>
<path d="M7.10649 23.0105C6.89966 22.9625 6.62963 22.8605 6.2964 22.7046C5.97466 22.5486 5.79081 22.3566 5.74484 22.1286C5.73335 21.8526 5.79081 21.5526 5.91721 21.2286C6.71006 19.3566 7.65805 17.5507 8.76116 15.8107C8.79563 15.7508 8.77839 15.7208 8.70945 15.7208C7.69827 15.8047 6.65261 15.8647 5.57248 15.9007C4.97497 15.9247 4.52683 15.8947 4.22807 15.8107C3.76844 15.6788 3.37201 15.4688 3.03878 15.1808C2.96984 15.0968 2.99282 15.0248 3.10773 14.9648C3.57884 14.7968 4.06145 14.6768 4.55556 14.6048C6.33662 14.3408 8.07171 14.1308 9.76085 13.9748C9.82979 13.9628 9.8815 13.9268 9.91597 13.8668C12.2371 10.1469 14.7133 6.39702 17.3447 2.61713C17.4366 2.46113 17.5516 2.31713 17.6894 2.18514C17.8273 2.04114 17.9825 1.98114 18.1548 2.00514C18.4421 2.05314 18.7294 2.16114 19.0166 2.32913C19.5567 2.64112 20.0508 2.94112 20.4989 3.22911C20.7287 3.3731 20.8149 3.6011 20.7575 3.91309C20.6196 4.83706 20.4472 5.77303 20.2404 6.72101C19.7922 8.80895 19.3384 10.9209 18.8787 13.0568C18.8787 13.0928 18.896 13.1168 18.9304 13.1288C19.8842 13.0448 20.8379 12.9728 21.7916 12.9128C22.0329 12.8888 22.2857 12.9548 22.55 13.1108C23.0671 13.4108 23.544 13.7048 23.9806 13.9928C24.0151 14.0408 24.0036 14.0768 23.9461 14.1008C22.2225 14.5568 20.4472 14.8328 18.6202 14.9288C18.5283 14.9408 18.4651 15.0008 18.4306 15.1088C17.7297 18.3127 16.954 21.5526 16.1037 24.8285C15.8279 25.9205 15.5637 26.9584 15.3109 27.9424C15.2994 27.9904 15.2706 28.0084 15.2247 27.9964C14.6042 27.8284 14.0239 27.5644 13.4838 27.2044C13.4264 27.1684 13.4034 27.1084 13.4149 27.0244C13.9205 23.2325 14.5525 19.3326 15.3109 15.3248C15.3109 15.2648 15.2821 15.2348 15.2247 15.2348C14.834 15.3188 14.4548 15.3608 14.0871 15.3608C13.57 15.3728 13.0472 15.4208 12.5186 15.5048C12.4382 15.5168 12.3692 15.5648 12.3118 15.6488C11.5764 16.7407 10.8525 17.8387 10.14 18.9427C9.26675 20.3346 8.40495 21.6306 7.55463 22.8305C7.42823 22.9985 7.27886 23.0585 7.10649 23.0105ZM16.4312 9.29493C16.3623 9.46293 16.2876 9.60693 16.2071 9.72692C15.3913 10.9629 14.564 12.2229 13.7251 13.5068C13.7137 13.5188 13.7079 13.5368 13.7079 13.5608C13.7194 13.5728 13.7366 13.5788 13.7596 13.5788L15.6211 13.4168C15.6671 13.4048 15.6958 13.3748 15.7073 13.3268C15.9831 12.0549 16.2474 10.7949 16.5002 9.54693C16.5116 9.46293 16.5116 9.37893 16.5002 9.29493C16.4887 9.25893 16.4772 9.24094 16.4657 9.24094C16.4542 9.24094 16.4427 9.25893 16.4312 9.29493Z" fill="black"/>
</svg>
