<svg width="23" height="26" viewBox="0 0 23 26" fill="none" xmlns="http://www.w3.org/2000/svg">
<path d="M11.3999 2C9.9259 2 8.73324 3.15763 8.73324 4.58824C8.73324 6.01885 9.9259 7.17647 11.3999 7.17647C12.8739 7.17647 14.0666 6.01885 14.0666 4.58824C14.0666 3.15763 12.8739 2 11.3999 2ZM9.81661 8.47059C8.19677 8.47059 6.79573 9.44623 6.19157 10.8162L6.10823 10.9779L5.19157 14.4559C5.07699 14.8502 4.69157 15.2243 4.1499 15.386C4.13949 15.391 4.11865 15.381 4.10824 15.386L0.399902 16.2757L1.06657 18.7831L4.7749 17.8934H4.81657V17.8529C6.11865 17.489 7.31657 16.5892 7.73323 15.1838V15.1434H7.7749L8.06657 14.011V17.5294L4.06657 20.886C3.66553 21.2753 3.3999 21.6645 3.3999 22.1802C3.3999 23.2164 4.2072 24 5.2749 24H7.39991V21.5331C7.39991 20.7546 8.05615 20.1176 8.85823 20.1176H9.52489C10.9937 19.9862 12.5978 20.2491 14.0666 20.7647L15.3999 21.1691L8.73324 21.4117V24H17.5249C18.5926 24 19.3999 23.2164 19.3999 22.1802C19.3999 21.6645 19.1343 21.1439 18.7332 20.886L14.7333 17.5294V14.011L15.0249 15.1434H15.0666V15.1838C15.4259 16.4122 16.452 17.6002 18.0249 17.8529V17.8934L21.7332 18.7831L22.3999 16.2757L18.6499 15.386L18.5665 15.3456H18.4832C18.0093 15.29 17.7697 15.017 17.6082 14.4964V14.4559L16.6916 10.9779L16.6083 10.8162C16.0041 9.44623 14.603 8.47059 12.9832 8.47059H9.81661Z" fill="#00E5FF"/>
</svg>
