<svg width="25" height="25" viewBox="0 0 25 25" fill="none" xmlns="http://www.w3.org/2000/svg">
<path d="M12.5 0C10.825 0 9.4697 1.31549 9.4697 2.94118C9.4697 4.56687 10.825 5.88235 12.5 5.88235C14.175 5.88235 15.5303 4.56687 15.5303 2.94118C15.5303 1.31549 14.175 0 12.5 0ZM10.7008 7.35294C8.86008 7.35294 7.26799 8.46163 6.58144 10.0184L6.48674 10.2022L5.44508 14.1544C5.31487 14.6025 4.87689 15.0276 4.26136 15.2114C4.24953 15.2171 4.22585 15.2057 4.21402 15.2114L0 16.2224L0.757576 19.0717L4.97159 18.0607H5.01894V18.0147C6.49858 17.6011 7.85985 16.5786 8.33333 14.9816V14.9357H8.38068L8.71212 13.6489V17.6471L4.16667 21.4614C3.71094 21.9037 3.40909 22.346 3.40909 22.932C3.40909 24.1096 4.32647 25 5.53977 25H7.95455V22.1967C7.95455 21.312 8.70028 20.5882 9.61174 20.5882H10.3693C12.0384 20.4389 13.8613 20.7376 15.5303 21.3235L17.0455 21.7831L9.4697 22.0588V25H19.4602C20.6735 25 21.5909 24.1096 21.5909 22.932C21.5909 22.346 21.2891 21.7544 20.8333 21.4614L16.2879 17.6471V13.6489L16.6193 14.9357H16.6667V14.9816C17.075 16.3775 18.241 17.7275 20.0284 18.0147V18.0607L24.2424 19.0717L25 16.2224L20.7386 15.2114L20.6439 15.1654H20.5492C20.0107 15.1023 19.7384 14.792 19.5549 14.2004V14.1544L18.5133 10.2022L18.4186 10.0184C17.732 8.46163 16.1399 7.35294 14.2992 7.35294H10.7008Z" fill="white"/>
</svg>
