<svg width="100" height="100" viewBox="0 0 100 100" fill="none" xmlns="http://www.w3.org/2000/svg">
<path d="M64.2701 36.9292C61.6957 34.3569 57.5085 34.3569 54.9353 36.9292L46.1341 45.7307C44.8865 46.9784 44.2 48.6352 44.2 50.3989C44.2 52.1625 44.8865 53.8193 46.133 55.067C47.3806 56.3135 49.0385 57 50.8009 57C52.5634 57 54.2213 56.3135 55.4689 55.067L64.2701 46.2654C66.8433 43.691 66.8433 39.5036 64.2701 36.9292ZM62.5428 44.8803L59.3491 48.0742C58.919 48.5032 58.2225 48.5032 57.7935 48.0742L53.1255 43.406C52.6954 42.9758 52.6954 42.2794 53.1255 41.8504L56.4898 38.486C57.3479 37.6278 58.4745 37.1998 59.6021 37.1998C60.6627 37.1998 61.7232 37.5794 62.5594 38.3385C64.4384 40.0438 64.3371 43.0859 62.5428 44.8803Z" fill="black"/>
</svg>
