<svg width="25" height="25" viewBox="0 0 25 25" fill="none" xmlns="http://www.w3.org/2000/svg">
<path d="M22.8069 2.19226C19.8815 -0.730753 15.1233 -0.730753 12.1992 2.19226L2.1978 12.194C0.780107 13.6118 0 15.4946 0 17.4987C0 19.5028 0.780107 21.3856 2.19655 22.8034C3.61425 24.2199 5.49826 25 7.50103 25C9.50381 25 11.3878 24.2199 12.8055 22.8034L22.8069 12.8016C25.731 9.8761 25.731 5.11777 22.8069 2.19226ZM20.8441 11.2276L17.2149 14.857C16.7261 15.3446 15.9347 15.3446 15.4471 14.857L10.1426 9.5523C9.65383 9.06346 9.65383 8.27207 10.1426 7.78449L13.9657 3.96132C14.9408 2.98615 16.221 2.49981 17.5024 2.49981C18.7076 2.49981 19.9127 2.93114 20.8629 3.79379C22.9982 5.73163 22.8831 9.18848 20.8441 11.2276Z" fill="white"/>
</svg>
