<svg width="23" height="26" viewBox="0 0 23 26" fill="none" xmlns="http://www.w3.org/2000/svg">
<path d="M20.27 3.92919C17.6957 1.35694 13.5085 1.35694 10.9352 3.92919L2.13401 12.7307C0.886445 13.9784 0.199951 15.6352 0.199951 17.3989C0.199951 19.1625 0.886445 20.8193 2.13291 22.067C3.38049 23.3135 5.03842 24 6.80086 24C8.5633 24 10.2212 23.3135 11.4688 22.067L20.27 13.2654C22.8432 10.691 22.8432 6.50364 20.27 3.92919ZM18.5428 11.8803L15.3491 15.0742C14.9189 15.5032 14.2225 15.5032 13.7934 15.0742L9.12544 10.406C8.69532 9.97585 8.69532 9.27942 9.12544 8.85035L12.4898 5.48596C13.3479 4.62781 14.4744 4.19983 15.6021 4.19983C16.6626 4.19983 17.7231 4.5794 18.5593 5.33854C20.4384 7.04383 20.3371 10.0859 18.5428 11.8803Z" fill="black"/>
</svg>
