<svg width="28" height="25" viewBox="0 0 28 25" fill="none" xmlns="http://www.w3.org/2000/svg">
<path d="M9.33333 0C6.75694 0 4.66667 2.09961 4.66667 4.6875C4.66667 7.27539 6.75694 9.375 9.33333 9.375C11.9097 9.375 14 7.27539 14 4.6875C14 2.09961 11.9097 0 9.33333 0ZM9.33333 3.125C10.1901 3.125 10.8889 3.8269 10.8889 4.6875C10.8889 5.5481 10.1901 6.25 9.33333 6.25C8.47656 6.25 7.77778 5.5481 7.77778 4.6875C7.77778 3.8269 8.47656 3.125 9.33333 3.125ZM7.77778 10.6934V18.75H24.8889V25H28V17.1875C27.9392 15.5762 26.4991 15.2527 24.6458 14.9414L17.1111 14.0625H10.8889V10.6934C10.3906 10.8215 9.87413 10.9375 9.33333 10.9375C8.79253 10.9375 8.27604 10.8215 7.77778 10.6934ZM3.11111 12.5C1.39149 12.5 0 13.8977 0 15.625C0 17.3523 1.39149 18.75 3.11111 18.75C4.83073 18.75 6.22222 17.3523 6.22222 15.625C6.22222 13.8977 4.83073 12.5 3.11111 12.5ZM0 20.3125V23.4375H23.3333V20.3125H0Z" fill="white"/>
</svg>
