<svg width="23" height="26" viewBox="0 0 23 26" fill="none" xmlns="http://www.w3.org/2000/svg">
<path d="M8.13338 3.17859C6.10907 3.17859 4.46672 4.82828 4.46672 6.86162C4.46672 8.89497 6.10907 10.5447 8.13338 10.5447C10.1577 10.5447 11.8 8.89497 11.8 6.86162C11.8 4.82828 10.1577 3.17859 8.13338 3.17859ZM8.13338 5.63395C8.80656 5.63395 9.35561 6.18544 9.35561 6.86162C9.35561 7.53781 8.80656 8.0893 8.13338 8.0893C7.4602 8.0893 6.91116 7.53781 6.91116 6.86162C6.91116 6.18544 7.4602 5.63395 8.13338 5.63395ZM6.91116 11.5805V17.9107H20.3556V22.8214H22.8V16.6831C22.7523 15.417 21.6208 15.1629 20.1646 14.9183L14.2445 14.2277H9.35561V11.5805C8.96409 11.6812 8.55829 11.7723 8.13338 11.7723C7.70847 11.7723 7.30265 11.6812 6.91116 11.5805ZM3.24449 13C1.89336 13 0.800049 14.0982 0.800049 15.4554C0.800049 16.8125 1.89336 17.9107 3.24449 17.9107C4.59562 17.9107 5.68894 16.8125 5.68894 15.4554C5.68894 14.0982 4.59562 13 3.24449 13ZM0.800049 19.1384V21.5938H19.1334V19.1384H0.800049Z" fill="#00E5FF"/>
</svg>
