<svg width="270" height="65" viewBox="0 0 270 65" fill="none" xmlns="http://www.w3.org/2000/svg">
<g clip-path="url(#clip0_550_8)">
<g clip-path="url(#clip1_550_8)">
<g clip-path="url(#clip2_550_8)">
<path d="M188.934 0.5V0.574508C204.485 0.574508 217.564 4.15091 217.564 20.9153C217.564 37.6051 204.485 41.256 188.934 41.256H183.91V52.6558H165.408V0.5H188.934ZM192.683 26.6524V26.5779C197.866 26.5779 199.381 23.2995 199.381 20.9153C199.381 18.4565 197.866 15.1781 192.683 15.1781H183.91V26.6524H192.683Z" fill="white"/>
<path d="M23.7139 0.5C34.869 0.5 52.1558 4.52345 52.1558 26.6524C52.1558 48.7814 34.869 52.6558 23.7139 52.6558H0V0.5H23.7139ZM20.5373 38.0522C27.0383 38.0522 34.4258 36.4875 34.4258 26.6524C34.4258 16.7428 27.0383 15.1781 20.5373 15.1781H17.139V38.0522H20.5373Z" fill="white"/>
<path d="M74.5585 37.9986H107.292V52.6558H55.1361V0.5H105.366V15.1572H74.5585V19.6213H102.939V32.2697H74.5585V37.9986Z" fill="white"/>
<path d="M129.695 37.9986H162.428V52.6558H110.272V0.5H160.503V15.1572H129.695V19.6213H158.075V32.2697H129.695V37.9986Z" fill="white"/>
<path d="M217.564 39.2796L237.566 0.5L251.238 26.6903L217.564 39.2796Z" fill="white"/>
<path d="M223.767 41.0781L257.567 28.7136L269.72 52.6558H218.071L223.767 41.0781Z" fill="white"/>
<path d="M266.335 57.6159C268.451 58.113 269.202 58.7371 269.202 59.9641C269.202 60.9478 268.335 62.2806 265.595 62.2806C263.448 62.2806 262.358 61.1065 261.829 60.1757L264.379 59.5727C264.918 60.1122 265.542 60.2074 265.944 60.2074C266.367 60.2074 266.653 60.0487 266.653 59.8055C266.653 59.467 266.261 59.3929 265.214 59.192C264.093 58.9698 262.03 58.3775 262.03 56.6639C262.03 55.4263 263.109 54.5272 265.405 54.5272C267.425 54.5272 268.789 55.7436 269.022 56.6216L266.653 57.1082C266.431 56.7379 265.807 56.6004 265.288 56.6004C264.929 56.6004 264.569 56.6851 264.569 56.9178C264.569 57.288 265.225 57.362 266.335 57.6159Z" fill="white"/>
<path d="M258.723 57.6159C260.838 58.113 261.589 58.7371 261.589 59.9641C261.589 60.9478 260.722 62.2806 257.982 62.2806C255.835 62.2806 254.745 61.1065 254.216 60.1757L256.766 59.5727C257.305 60.1122 257.929 60.2074 258.331 60.2074C258.754 60.2074 259.04 60.0487 259.04 59.8055C259.04 59.467 258.649 59.3929 257.601 59.192C256.48 58.9698 254.417 58.3775 254.417 56.6639C254.417 55.4263 255.496 54.5272 257.792 54.5272C259.812 54.5272 261.177 55.7436 261.409 56.6216L259.04 57.1082C258.818 56.7379 258.194 56.6004 257.675 56.6004C257.316 56.6004 256.956 56.6851 256.956 56.9178C256.956 57.288 257.612 57.362 258.723 57.6159Z" fill="white"/>
<path d="M249.757 60.0276H253.893V62.1114H247.303V54.6965H253.65V56.7803H249.757V57.4149H253.343V59.2131H249.757V60.0276Z" fill="white"/>
<path d="M245.451 59.4776L246.847 62.1008H244.298L243.24 60.1122C243.018 60.1228 242.796 60.1334 242.563 60.1334H241.897V62.1008H239.443V54.6965H242.563C244.626 54.6965 246.36 55.183 246.36 57.4149C246.36 58.4092 246.011 59.065 245.451 59.4776ZM243.124 58.0602C243.726 58.0602 243.949 57.7428 243.949 57.4149C243.949 57.087 243.726 56.7803 243.124 56.7803H241.897V58.0602H243.124Z" fill="white"/>
<path d="M234.672 57.9015H238.724V62.1008H237.761L237.317 61.5613C236.619 62.0691 235.741 62.2806 234.842 62.2806C232.874 62.2806 230.79 61.2123 230.79 58.3986C230.79 55.5956 232.874 54.5272 234.842 54.5272C236.344 54.5272 237.92 55.1407 238.575 56.6745L236.365 57.5947C236.09 56.8543 235.434 56.6004 234.842 56.6004C234.08 56.6004 233.202 57.0235 233.202 58.3986C233.202 59.7843 234.08 60.2074 234.842 60.2074C235.286 60.2074 235.751 60.0699 236.079 59.6997H234.672V57.9015Z" fill="white"/>
<path d="M226.402 54.5272C228.38 54.5272 230.464 55.5956 230.464 58.3986C230.464 61.2123 228.38 62.2806 226.402 62.2806C224.435 62.2806 222.351 61.2123 222.351 58.3986C222.351 55.5956 224.435 54.5272 226.402 54.5272ZM226.402 60.2074C227.174 60.2074 228.052 59.7843 228.052 58.3986C228.052 57.0235 227.174 56.6004 226.402 56.6004C225.641 56.6004 224.763 57.0235 224.763 58.3986C224.763 59.7843 225.641 60.2074 226.402 60.2074Z" fill="white"/>
<path d="M220.845 59.4776L222.241 62.1008H219.692L218.635 60.1122C218.412 60.1228 218.19 60.1334 217.958 60.1334H217.291V62.1008H214.837V54.6965H217.958C220.02 54.6965 221.755 55.183 221.755 57.4149C221.755 58.4092 221.406 59.065 220.845 59.4776ZM218.518 58.0602C219.121 58.0602 219.343 57.7428 219.343 57.4149C219.343 57.087 219.121 56.7803 218.518 56.7803H217.291V58.0602H218.518Z" fill="white"/>
<path d="M210.499 54.6965V54.707C212.562 54.707 214.297 55.2148 214.297 57.5947C214.297 59.9641 212.562 60.4824 210.499 60.4824H209.833V62.1008H207.379V54.6965H210.499ZM210.997 58.4092V58.3986C211.684 58.3986 211.885 57.9332 211.885 57.5947C211.885 57.2457 211.684 56.7803 210.997 56.7803H209.833V58.4092H210.997Z" fill="white"/>
<path d="M198.451 54.6965C200.049 54.6965 202.524 55.2677 202.524 58.4092C202.524 61.5508 200.049 62.1008 198.451 62.1008H195.056V54.6965H198.451ZM197.996 60.0276C198.927 60.0276 199.985 59.8055 199.985 58.4092C199.985 57.0024 198.927 56.7803 197.996 56.7803H197.51V60.0276H197.996Z" fill="white"/>
<path d="M191.742 54.6965H194.196V62.1008H191.742L189.267 58.2188V62.1008H186.813V54.6965H189.267V54.707L191.742 58.5996V54.6965Z" fill="white"/>
<path d="M183.855 54.6965L186.457 62.1008H183.918L183.548 61.043H180.682L180.301 62.1008H177.773L180.364 54.6965H183.855ZM181.306 59.2448H182.914L182.11 56.9601L181.306 59.2448Z" fill="white"/>
<path d="M169.206 60.0276H173.342V62.1114H166.752V54.6965H173.099V56.7803H169.206V57.4149H172.792V59.2131H169.206V60.0276Z" fill="white"/>
<path d="M163.811 58.9064H166.244C166.011 61.3392 164.065 62.2806 162.203 62.2806C160.236 62.2806 158.152 61.2123 158.152 58.3986C158.152 55.5956 160.236 54.5272 162.203 54.5272C163.705 54.5272 165.281 55.1407 165.937 56.6745L163.726 57.5947C163.451 56.8543 162.796 56.6004 162.203 56.6004C161.442 56.6004 160.564 57.0235 160.564 58.3986C160.564 59.7843 161.442 60.2074 162.203 60.2074C162.87 60.2074 163.621 59.8901 163.811 58.9064Z" fill="white"/>
<path d="M155.102 54.6965H157.556V62.1008H155.102L152.627 58.2188V62.1008H150.173V54.6965H152.627V54.707L155.102 58.5996V54.6965Z" fill="white"/>
<path d="M147.216 54.6965L149.818 62.1008H147.279L146.909 61.043H144.042L143.661 62.1008H141.133L143.725 54.6965H147.216ZM144.666 59.2448H146.274L145.47 56.9601L144.666 59.2448Z" fill="white"/>
<path d="M139.705 59.4776L141.102 62.1008H138.552L137.495 60.1122C137.273 60.1228 137.05 60.1334 136.818 60.1334H136.151V62.1008H133.697V54.6965H136.818C138.88 54.6965 140.615 55.183 140.615 57.4149C140.615 58.4092 140.266 59.065 139.705 59.4776ZM137.378 58.0602C137.981 58.0602 138.203 57.7428 138.203 57.4149C138.203 57.087 137.981 56.7803 137.378 56.7803H136.151V58.0602H137.378Z" fill="white"/>
<path d="M130.486 54.6965H132.94V59.1497C132.94 60.8844 131.988 62.2806 129.216 62.2806C126.456 62.2806 125.504 60.8844 125.504 59.1497V54.6965H127.958V58.9487C127.958 59.9853 128.688 60.2074 129.216 60.2074C129.756 60.2074 130.486 59.9853 130.486 58.9487V54.6965Z" fill="white"/>
<path d="M120.937 54.6965C122.534 54.6965 125.01 55.2677 125.01 58.4092C125.01 61.5508 122.534 62.1008 120.937 62.1008H117.542V54.6965H120.937ZM120.482 60.0276C121.413 60.0276 122.471 59.8055 122.471 58.4092C122.471 57.0024 121.413 56.7803 120.482 56.7803H119.996V60.0276H120.482Z" fill="white"/>
<path d="M114.228 54.6965H116.682V62.1008H114.228L111.753 58.2188V62.1008H109.299V54.6965H111.753V54.707L114.228 58.5996V54.6965Z" fill="white"/>
<path d="M104.501 60.0276H108.637V62.1114H102.047V54.6965H108.394V56.7803H104.501V57.4149H108.087V59.2131H104.501V60.0276Z" fill="white"/>
<path d="M94.5044 59.816H97.0536C97.0536 61.4661 96.7152 62.9787 95.9113 63.7298L95.2026 63.4759C95.5939 62.9893 95.7632 61.8893 95.2449 61.8893H94.4727L94.5044 59.816Z" fill="white"/>
<path d="M89.7917 60.0276H93.9275V62.1114H87.3377V54.6965H93.6842V56.7803H89.7917V57.4149H93.3775V59.2131H89.7917V60.0276Z" fill="white"/>
<path d="M83.8922 57.6159C86.0078 58.113 86.7588 58.7371 86.7588 59.9641C86.7588 60.9478 85.8914 62.2806 83.1518 62.2806C81.0046 62.2806 79.9151 61.1065 79.3862 60.1757L81.9354 59.5727C82.4748 60.1122 83.0989 60.2074 83.5009 60.2074C83.924 60.2074 84.2096 60.0487 84.2096 59.8055C84.2096 59.467 83.8182 59.3929 82.771 59.192C81.6498 58.9698 79.5872 58.3775 79.5872 56.6639C79.5872 55.4263 80.6661 54.5272 82.9614 54.5272C84.9817 54.5272 86.3463 55.7436 86.579 56.6216L84.2096 57.1082C83.9874 56.7379 83.3634 56.6004 82.8451 56.6004C82.4854 56.6004 82.1258 56.6851 82.1258 56.9178C82.1258 57.288 82.7816 57.362 83.8922 57.6159Z" fill="white"/>
<path d="M78.8628 62.1008H76.4088V54.6965H78.8628V62.1008Z" fill="white"/>
<path d="M73.4673 58.9064H75.9002C75.6675 61.3392 73.7212 62.2806 71.8595 62.2806C69.8921 62.2806 67.8083 61.2123 67.8083 58.3986C67.8083 55.5956 69.8921 54.5272 71.8595 54.5272C73.3616 54.5272 74.9376 55.1407 75.5934 56.6745L73.3827 57.5947C73.1077 56.8543 72.4519 56.6004 71.8595 56.6004C71.098 56.6004 70.22 57.0235 70.22 58.3986C70.22 59.7843 71.098 60.2074 71.8595 60.2074C72.5259 60.2074 73.2769 59.8901 73.4673 58.9064Z" fill="white"/>
<path d="M66.3026 59.4776L67.6988 62.1008H65.1496L64.0919 60.1122C63.8697 60.1228 63.6476 60.1334 63.4149 60.1334H62.7485V62.1008H60.2945V54.6965H63.4149C65.4775 54.6965 67.2123 55.183 67.2123 57.4149C67.2123 58.4092 66.8632 59.065 66.3026 59.4776ZM63.9755 58.0602C64.5784 58.0602 64.8006 57.7428 64.8006 57.4149C64.8006 57.087 64.5784 56.7803 63.9755 56.7803H62.7485V58.0602H63.9755Z" fill="white"/>
<path d="M55.497 60.0276H59.6329V62.1114H53.043V54.6965H59.3896V56.7803H55.497V57.4149H59.0829V59.2131H55.497V60.0276Z" fill="white"/>
<path d="M50.1346 58.4198L52.6838 62.1008H49.8173L48.5162 60.218L47.3633 62.1008H44.5919L47.1094 58.1765L44.7083 54.707H47.5748L48.7384 56.3889L49.775 54.707H52.5463L50.1346 58.4198Z" fill="white"/>
<path d="M40.2917 60.0276H44.4276V62.1114H37.8377V54.6965H44.1843V56.7803H40.2917V57.4149H43.8776V59.2131H40.2917V60.0276Z" fill="white"/>
<path d="M30.8539 54.707H33.2867L30.1769 59.6151V62.1008H27.7229V59.6574L24.5919 54.707H27.3738L29.1192 57.4572L30.8539 54.707Z" fill="white"/>
<path d="M21.9978 60.0276H25.7528V62.1008L19.5438 62.1114V54.6965H21.9978V60.0276Z" fill="white"/>
<path d="M18.6819 62.1008H16.2279V54.6965H18.6819V62.1008Z" fill="white"/>
<path d="M13.2702 54.6965L15.8723 62.1008H13.3337L12.9635 61.043H10.097L9.71616 62.1008H7.18811L9.77963 54.6965H13.2702ZM10.721 59.2448H12.3288L11.5249 56.9601L10.721 59.2448Z" fill="white"/>
<path d="M3.39542 54.6965C4.99264 54.6965 7.4678 55.2677 7.4678 58.4092C7.4678 61.5508 4.99264 62.1008 3.39542 62.1008H0V54.6965H3.39542ZM2.94058 60.0276C3.87141 60.0276 4.92917 59.8055 4.92917 58.4092C4.92917 57.0024 3.87141 56.7803 2.94058 56.7803H2.45401V60.0276H2.94058Z" fill="white"/>
</g>
</g>
</g>
<defs>
<clipPath id="clip0_550_8">
<rect width="270" height="64" fill="white" transform="translate(0 0.5)"/>
</clipPath>
<clipPath id="clip1_550_8">
<rect width="270" height="64" fill="white" transform="translate(0 0.5)"/>
</clipPath>
<clipPath id="clip2_550_8">
<rect width="270" height="64" fill="white" transform="translate(0 0.5)"/>
</clipPath>
</defs>
</svg>
