<svg width="40" height="40" viewBox="0 0 40 40" fill="none" xmlns="http://www.w3.org/2000/svg">
<g clip-path="url(#clip0_550_111)">
<g clip-path="url(#clip1_550_111)">
<g clip-path="url(#clip2_550_111)">
<path d="M20 0C17.32 0 15.1515 2.10478 15.1515 4.70589C15.1515 7.30699 17.32 9.41176 20 9.41176C22.68 9.41176 24.8485 7.30699 24.8485 4.70589C24.8485 2.10478 22.68 0 20 0ZM17.1213 11.7647C14.1761 11.7647 11.6288 13.5386 10.5303 16.0294L10.3788 16.3235L8.71213 22.647C8.50379 23.364 7.80302 24.0442 6.81818 24.3382C6.79925 24.3474 6.76136 24.3291 6.74243 24.3382L0 25.9558L1.21212 30.5147L7.95454 28.8971H8.0303V28.8235C10.3977 28.1618 12.5758 26.5258 13.3333 23.9706V23.8971H13.4091L13.9394 21.8382V28.2354L6.66667 34.3382C5.9375 35.0459 5.45454 35.7536 5.45454 36.6912C5.45454 38.5754 6.92235 40 8.86363 40H12.7273V35.5147C12.7273 34.0992 13.9204 32.9411 15.3788 32.9411H16.5909C19.2614 32.7022 22.1781 33.1802 24.8485 34.1176L27.2728 34.853L15.1515 35.2941V40H31.1363C33.0776 40 34.5454 38.5754 34.5454 36.6912C34.5454 35.7536 34.0626 34.807 33.3333 34.3382L26.0606 28.2354V21.8382L26.5909 23.8971H26.6667V23.9706C27.32 26.204 29.1856 28.364 32.0454 28.8235V28.8971L38.7878 30.5147L40 25.9558L33.1818 24.3382L33.0302 24.2646H32.8787C32.0171 24.1637 31.5814 23.6672 31.2878 22.7206V22.647L29.6213 16.3235L29.4698 16.0294C28.3712 13.5386 25.8238 11.7647 22.8787 11.7647H17.1213Z" fill="black"/>
</g>
</g>
</g>
<defs>
<clipPath id="clip0_550_111">
<rect width="40" height="40" fill="white"/>
</clipPath>
<clipPath id="clip1_550_111">
<rect width="40" height="40" fill="white"/>
</clipPath>
<clipPath id="clip2_550_111">
<rect width="40" height="40" fill="white"/>
</clipPath>
</defs>
</svg>
